<svg xmlns="http://www.w3.org/2000/svg" xmlns:xlink="http://www.w3.org/1999/xlink" xmlns:lucid="lucid" width="1100" height="760"><g transform="translate(-340 -460)" lucid:page-tab-id="0_0"><path d="M400 600h600v150H400z" stroke="#000" stroke-width="2" fill="#fff"/><use xlink:href="#a" transform="matrix(1,0,0,1,405,605) translate(0 75.65)"/><use xlink:href="#b" transform="matrix(1,0,0,1,405,605) translate(15 75.65)"/><use xlink:href="#c" transform="matrix(1,0,0,1,405,605) translate(35 75.65)"/><path d="M400 750h600v150H400z" stroke="#000" stroke-width="2" fill="#fff"/><use xlink:href="#a" transform="matrix(1,0,0,1,405,755) translate(0 75.65)"/><use xlink:href="#d" transform="matrix(1,0,0,1,405,755) translate(15 75.65)"/><use xlink:href="#c" transform="matrix(1,0,0,1,405,755) translate(35 75.65)"/><path d="M400 900h600v150H400z" stroke="#000" stroke-width="2" fill="#fff"/><use xlink:href="#a" transform="matrix(1,0,0,1,405,905) translate(0 75.65)"/><use xlink:href="#e" transform="matrix(1,0,0,1,405,905) translate(15 75.65)"/><use xlink:href="#c" transform="matrix(1,0,0,1,405,905) translate(35 75.65)"/><path d="M400 1050h600v150H400z" stroke="#000" stroke-width="2" fill="#fff"/><use xlink:href="#a" transform="matrix(1,0,0,1,405,1055) translate(0 75.65)"/><use xlink:href="#f" transform="matrix(1,0,0,1,405,1055) translate(15 75.65)"/><use xlink:href="#c" transform="matrix(1,0,0,1,405,1055) translate(35 75.65)"/><path d="M360 600h680L700 480z" stroke="#000" stroke-width="2" fill="#999"/><path d="M700 615h284.4v120H700z" stroke="#000" stroke-width="2" fill="#c1e4f7"/><path d="M938.88 641.1c0 6.72-7.58 12.15-16.92 12.15-9.4 0-16.97-5.43-16.97-12.16s7.57-12.17 16.96-12.17c9.34 0 16.92 5.44 16.92 12.16zM907.42 654.45h29.4c9.07 0 9.07 0 9.07 6.54s0 6.54-9.07 6.54h-29.4c-9.06 0-9.06 0-9.06-6.55s0-6.55 9.05-6.55z" fill="#19967d"/><path d="M909.43 665.42h25.02v27h-25.02v-27z" fill="#19967d"/><path d="M909.43 691.4h11.3v29.76h-11.3V691.4zM923.96 691.68h10.5v29.3h-10.5v-29.3zM898.46 659.34h8.58v26.07h-8.58v-26.06zM937.16 659.7h8.68v26.08h-8.68V659.7zM858.88 641.1c0 6.72-7.58 12.15-16.92 12.15-9.4 0-16.97-5.43-16.97-12.16s7.57-12.17 16.96-12.17c9.34 0 16.92 5.44 16.92 12.16zM827.42 654.45h29.4c9.07 0 9.07 0 9.07 6.54s0 6.54-9.07 6.54h-29.4c-9.06 0-9.06 0-9.06-6.55s0-6.55 9.05-6.55z" fill="#19967d"/><path d="M829.43 665.42h25.02v27h-25.02v-27z" fill="#19967d"/><path d="M829.43 691.4h11.3v29.76h-11.3V691.4zM843.96 691.68h10.5v29.3h-10.5v-29.3zM818.46 659.34h8.58v26.07h-8.58v-26.06zM857.16 659.7h8.68v26.08h-8.68V659.7zM778.88 641.1c0 6.72-7.58 12.15-16.92 12.15-9.4 0-16.97-5.43-16.97-12.16s7.57-12.17 16.96-12.17c9.34 0 16.92 5.44 16.92 12.16zM747.42 654.45h29.4c9.07 0 9.07 0 9.07 6.54s0 6.54-9.07 6.54h-29.4c-9.06 0-9.06 0-9.06-6.55s0-6.55 9.05-6.55z" fill="#19967d"/><path d="M749.43 665.42h25.02v27h-25.02v-27z" fill="#19967d"/><path d="M749.43 691.4h11.3v29.76h-11.3V691.4zM763.96 691.68h10.5v29.3h-10.5v-29.3zM738.46 659.34h8.58v26.07h-8.58v-26.06zM777.16 659.7h8.68v26.08h-8.68V659.7z" fill="#19967d"/><path d="M500 1065h140v40H500z" stroke="#000" stroke-width="2" fill="#ffeca9"/><use xlink:href="#g" transform="matrix(1,0,0,1,505,1070) translate(10.125 18.15)"/><use xlink:href="#h" transform="matrix(1,0,0,1,505,1070) translate(99.875 18.15)"/><path d="M500 1105h140v80H500z" stroke="#000" stroke-width="2" fill="#ffeca9"/><use xlink:href="#i" transform="matrix(1,0,0,1,505,1110) translate(0 16.5875)"/><use xlink:href="#j" transform="matrix(1,0,0,1,505,1110) translate(10.95 16.5875)"/><use xlink:href="#k" transform="matrix(1,0,0,1,505,1110) translate(62.85000000000001 16.5875)"/><use xlink:href="#l" transform="matrix(1,0,0,1,505,1110) translate(0 38.1875)"/><use xlink:href="#m" transform="matrix(1,0,0,1,505,1110) translate(10.95 38.1875)"/><use xlink:href="#n" transform="matrix(1,0,0,1,505,1110) translate(81.85000000000001 38.1875)"/><use xlink:href="#l" transform="matrix(1,0,0,1,505,1110) translate(0 59.7875)"/><use xlink:href="#o" transform="matrix(1,0,0,1,505,1110) translate(10.95 59.7875)"/><use xlink:href="#p" transform="matrix(1,0,0,1,505,1110) translate(38.75 59.7875)"/><use xlink:href="#q" transform="matrix(1,0,0,1,505,1110) translate(63.75 59.7875)"/><path d="M700 770h284.4v120H700z" stroke="#000" stroke-width="2" fill="#c1e4f7"/><path d="M938.88 796.1c0 6.72-7.58 12.15-16.92 12.15-9.4 0-16.97-5.43-16.97-12.16s7.57-12.17 16.96-12.17c9.34 0 16.92 5.44 16.92 12.16zM907.42 809.45h29.4c9.07 0 9.07 0 9.07 6.54s0 6.54-9.07 6.54h-29.4c-9.06 0-9.06 0-9.06-6.55s0-6.55 9.05-6.55z" fill="#19967d"/><path d="M909.43 820.42h25.02v27h-25.02v-27z" fill="#19967d"/><path d="M909.43 846.4h11.3v29.76h-11.3V846.4zM923.96 846.68h10.5v29.3h-10.5v-29.3zM898.46 814.34h8.58v26.07h-8.58v-26.06zM937.16 814.7h8.68v26.08h-8.68V814.7zM858.88 796.1c0 6.72-7.58 12.15-16.92 12.15-9.4 0-16.97-5.43-16.97-12.16s7.57-12.17 16.96-12.17c9.34 0 16.92 5.44 16.92 12.16zM827.42 809.45h29.4c9.07 0 9.07 0 9.07 6.54s0 6.54-9.07 6.54h-29.4c-9.06 0-9.06 0-9.06-6.55s0-6.55 9.05-6.55z" fill="#19967d"/><path d="M829.43 820.42h25.02v27h-25.02v-27z" fill="#19967d"/><path d="M829.43 846.4h11.3v29.76h-11.3V846.4zM843.96 846.68h10.5v29.3h-10.5v-29.3zM818.46 814.34h8.58v26.07h-8.58v-26.06zM857.16 814.7h8.68v26.08h-8.68V814.7zM778.88 796.1c0 6.72-7.58 12.15-16.92 12.15-9.4 0-16.97-5.43-16.97-12.16s7.57-12.17 16.96-12.17c9.34 0 16.92 5.44 16.92 12.16zM747.42 809.45h29.4c9.07 0 9.07 0 9.07 6.54s0 6.54-9.07 6.54h-29.4c-9.06 0-9.06 0-9.06-6.55s0-6.55 9.05-6.55z" fill="#19967d"/><path d="M749.43 820.42h25.02v27h-25.02v-27z" fill="#19967d"/><path d="M749.43 846.4h11.3v29.76h-11.3V846.4zM763.96 846.68h10.5v29.3h-10.5v-29.3zM738.46 814.34h8.58v26.07h-8.58v-26.06zM777.16 814.7h8.68v26.08h-8.68V814.7z" fill="#19967d"/><path d="M700 915h284.4v120H700z" stroke="#000" stroke-width="2" fill="#c1e4f7"/><path d="M938.88 941.1c0 6.72-7.58 12.15-16.92 12.15-9.4 0-16.97-5.43-16.97-12.16s7.57-12.17 16.96-12.17c9.34 0 16.92 5.44 16.92 12.16zM907.42 954.45h29.4c9.07 0 9.07 0 9.07 6.54s0 6.54-9.07 6.54h-29.4c-9.06 0-9.06 0-9.06-6.55s0-6.55 9.05-6.55z" fill="#19967d"/><path d="M909.43 965.42h25.02v27h-25.02v-27z" fill="#19967d"/><path d="M909.43 991.4h11.3v29.76h-11.3V991.4zM923.96 991.68h10.5v29.3h-10.5v-29.3zM898.46 959.34h8.58v26.07h-8.58v-26.06zM937.16 959.7h8.68v26.08h-8.68V959.7zM858.88 941.1c0 6.72-7.58 12.15-16.92 12.15-9.4 0-16.97-5.43-16.97-12.16s7.57-12.17 16.96-12.17c9.34 0 16.92 5.44 16.92 12.16zM827.42 954.45h29.4c9.07 0 9.07 0 9.07 6.54s0 6.54-9.07 6.54h-29.4c-9.06 0-9.06 0-9.06-6.55s0-6.55 9.05-6.55z" fill="#19967d"/><path d="M829.43 965.42h25.02v27h-25.02v-27z" fill="#19967d"/><path d="M829.43 991.4h11.3v29.76h-11.3V991.4zM843.96 991.68h10.5v29.3h-10.5v-29.3zM818.46 959.34h8.58v26.07h-8.58v-26.06zM857.16 959.7h8.68v26.08h-8.68V959.7zM778.88 941.1c0 6.72-7.58 12.15-16.92 12.15-9.4 0-16.97-5.43-16.97-12.16s7.57-12.17 16.96-12.17c9.34 0 16.92 5.44 16.92 12.16zM747.42 954.45h29.4c9.07 0 9.07 0 9.07 6.54s0 6.54-9.07 6.54h-29.4c-9.06 0-9.06 0-9.06-6.55s0-6.55 9.05-6.55z" fill="#19967d"/><path d="M749.43 965.42h25.02v27h-25.02v-27z" fill="#19967d"/><path d="M749.43 991.4h11.3v29.76h-11.3V991.4zM763.96 991.68h10.5v29.3h-10.5v-29.3zM738.46 959.34h8.58v26.07h-8.58v-26.06zM777.16 959.7h8.68v26.08h-8.68V959.7z" fill="#19967d"/><path d="M700 1065h284.4v120H700z" stroke="#000" stroke-width="2" fill="#c1e4f7"/><path d="M938.88 1091.1c0 6.72-7.58 12.15-16.92 12.15-9.4 0-16.97-5.43-16.97-12.16s7.57-12.17 16.96-12.17c9.34 0 16.92 5.43 16.92 12.16zM907.42 1104.45h29.4c9.07 0 9.07 0 9.07 6.54s0 6.54-9.07 6.54h-29.4c-9.06 0-9.06 0-9.06-6.55s0-6.55 9.05-6.55z" fill="#19967d"/><path d="M909.43 1115.42h25.02v27h-25.02v-27z" fill="#19967d"/><path d="M909.43 1141.4h11.3v29.76h-11.3v-29.76zM923.96 1141.68h10.5v29.3h-10.5v-29.3zM898.46 1109.34h8.58v26.07h-8.58v-26.06zM937.16 1109.7h8.68v26.08h-8.68v-26.08zM858.88 1091.1c0 6.72-7.58 12.15-16.92 12.15-9.4 0-16.97-5.43-16.97-12.16s7.57-12.17 16.96-12.17c9.34 0 16.92 5.43 16.92 12.16zM827.42 1104.45h29.4c9.07 0 9.07 0 9.07 6.54s0 6.54-9.07 6.54h-29.4c-9.06 0-9.06 0-9.06-6.55s0-6.55 9.05-6.55z" fill="#19967d"/><path d="M829.43 1115.42h25.02v27h-25.02v-27z" fill="#19967d"/><path d="M829.43 1141.4h11.3v29.76h-11.3v-29.76zM843.96 1141.68h10.5v29.3h-10.5v-29.3zM818.46 1109.34h8.58v26.07h-8.58v-26.06zM857.16 1109.7h8.68v26.08h-8.68v-26.08zM778.88 1091.1c0 6.72-7.58 12.15-16.92 12.15-9.4 0-16.97-5.43-16.97-12.16s7.57-12.17 16.96-12.17c9.34 0 16.92 5.43 16.92 12.16zM747.42 1104.45h29.4c9.07 0 9.07 0 9.07 6.54s0 6.54-9.07 6.54h-29.4c-9.06 0-9.06 0-9.06-6.55s0-6.55 9.05-6.55z" fill="#19967d"/><path d="M749.43 1115.42h25.02v27h-25.02v-27z" fill="#19967d"/><path d="M749.43 1141.4h11.3v29.76h-11.3v-29.76zM763.96 1141.68h10.5v29.3h-10.5v-29.3zM738.46 1109.34h8.58v26.07h-8.58v-26.06zM777.16 1109.7h8.68v26.08h-8.68v-26.08z" fill="#19967d"/><path d="M696 1125h-28.03" stroke="#c92d39" stroke-width="6" fill="none"/><path d="M699 1128h-3.08v-6H699z" fill="#c92d39"/><path d="M650.7 1125l14.27-4.64v9.28z" stroke="#c92d39" stroke-width="6" fill="#c92d39"/><path d="M500 915h140v40H500z" stroke="#000" stroke-width="2" fill="#ffeca9"/><use xlink:href="#g" transform="matrix(1,0,0,1,505,920) translate(10.125 18.15)"/><use xlink:href="#r" transform="matrix(1,0,0,1,505,920) translate(99.875 18.15)"/><path d="M500 955h140v80H500z" stroke="#000" stroke-width="2" fill="#ffeca9"/><use xlink:href="#i" transform="matrix(1,0,0,1,505,960) translate(0 16.5875)"/><use xlink:href="#j" transform="matrix(1,0,0,1,505,960) translate(10.95 16.5875)"/><use xlink:href="#k" transform="matrix(1,0,0,1,505,960) translate(62.85000000000001 16.5875)"/><use xlink:href="#l" transform="matrix(1,0,0,1,505,960) translate(0 38.1875)"/><use xlink:href="#m" transform="matrix(1,0,0,1,505,960) translate(10.95 38.1875)"/><use xlink:href="#n" transform="matrix(1,0,0,1,505,960) translate(81.85000000000001 38.1875)"/><use xlink:href="#l" transform="matrix(1,0,0,1,505,960) translate(0 59.7875)"/><use xlink:href="#o" transform="matrix(1,0,0,1,505,960) translate(10.95 59.7875)"/><use xlink:href="#p" transform="matrix(1,0,0,1,505,960) translate(38.75 59.7875)"/><use xlink:href="#q" transform="matrix(1,0,0,1,505,960) translate(63.75 59.7875)"/><path d="M500 770h140v40H500z" stroke="#000" stroke-width="2" fill="#ffeca9"/><use xlink:href="#g" transform="matrix(1,0,0,1,505,775) translate(10.125 18.15)"/><use xlink:href="#s" transform="matrix(1,0,0,1,505,775) translate(99.875 18.15)"/><path d="M500 810h140v80H500z" stroke="#000" stroke-width="2" fill="#ffeca9"/><use xlink:href="#i" transform="matrix(1,0,0,1,505,815) translate(0 16.5875)"/><use xlink:href="#j" transform="matrix(1,0,0,1,505,815) translate(10.95 16.5875)"/><use xlink:href="#k" transform="matrix(1,0,0,1,505,815) translate(62.85000000000001 16.5875)"/><use xlink:href="#l" transform="matrix(1,0,0,1,505,815) translate(0 38.1875)"/><use xlink:href="#m" transform="matrix(1,0,0,1,505,815) translate(10.95 38.1875)"/><use xlink:href="#n" transform="matrix(1,0,0,1,505,815) translate(81.85000000000001 38.1875)"/><use xlink:href="#l" transform="matrix(1,0,0,1,505,815) translate(0 59.7875)"/><use xlink:href="#o" transform="matrix(1,0,0,1,505,815) translate(10.95 59.7875)"/><use xlink:href="#p" transform="matrix(1,0,0,1,505,815) translate(38.75 59.7875)"/><use xlink:href="#q" transform="matrix(1,0,0,1,505,815) translate(63.75 59.7875)"/><path d="M500 615h140v40H500z" stroke="#000" stroke-width="2" fill="#ffeca9"/><use xlink:href="#g" transform="matrix(1,0,0,1,505,620) translate(10.125 18.15)"/><use xlink:href="#t" transform="matrix(1,0,0,1,505,620) translate(99.875 18.15)"/><path d="M500 646.8h140v96.4H500z" stroke="#000" stroke-width="2" fill="#ffeca9"/><use xlink:href="#i" transform="matrix(1,0,0,1,505,651.8) translate(0 25.275)"/><use xlink:href="#j" transform="matrix(1,0,0,1,505,651.8) translate(10.95 25.275)"/><use xlink:href="#k" transform="matrix(1,0,0,1,505,651.8) translate(62.85000000000001 25.275)"/><use xlink:href="#l" transform="matrix(1,0,0,1,505,651.8) translate(0 46.875)"/><use xlink:href="#m" transform="matrix(1,0,0,1,505,651.8) translate(10.95 46.875)"/><use xlink:href="#n" transform="matrix(1,0,0,1,505,651.8) translate(81.85000000000001 46.875)"/><use xlink:href="#l" transform="matrix(1,0,0,1,505,651.8) translate(0 68.47500000000001)"/><use xlink:href="#o" transform="matrix(1,0,0,1,505,651.8) translate(10.95 68.47500000000001)"/><use xlink:href="#p" transform="matrix(1,0,0,1,505,651.8) translate(38.75 68.47500000000001)"/><use xlink:href="#q" transform="matrix(1,0,0,1,505,651.8) translate(63.75 68.47500000000001)"/><path d="M696 975h-28.03" stroke="#c92d39" stroke-width="6" fill="none"/><path d="M699 978h-3.08v-6H699z" fill="#c92d39"/><path d="M650.7 975l14.27-4.64v9.28z" stroke="#c92d39" stroke-width="6" fill="#c92d39"/><path d="M696 830h-28.03" stroke="#c92d39" stroke-width="6" fill="none"/><path d="M699 833h-3.08v-6H699z" fill="#c92d39"/><path d="M650.7 830l14.27-4.64v9.28z" stroke="#c92d39" stroke-width="6" fill="#c92d39"/><path d="M696 675h-28.03" stroke="#c92d39" stroke-width="6" fill="none"/><path d="M699 678h-3.08v-6H699z" fill="#c92d39"/><path d="M650.7 675l14.27-4.64v9.28z" stroke="#c92d39" stroke-width="6" fill="#c92d39"/><path d="M1060 980h140v40h-140z" stroke="#000" stroke-width="2" fill="#ffeca9"/><g><use xlink:href="#u" transform="matrix(1,0,0,1,1065,985) translate(19.599999999999994 18.15)"/><use xlink:href="#h" transform="matrix(1,0,0,1,1065,985) translate(90.4 18.15)"/></g><path d="M1060 1020h140v80h-140z" stroke="#000" stroke-width="2" fill="#ffeca9"/><g><use xlink:href="#i" transform="matrix(1,0,0,1,1065,1025) translate(0 16.5875)"/><use xlink:href="#j" transform="matrix(1,0,0,1,1065,1025) translate(10.95 16.5875)"/><use xlink:href="#v" transform="matrix(1,0,0,1,1065,1025) translate(62.85000000000001 16.5875)"/><use xlink:href="#l" transform="matrix(1,0,0,1,1065,1025) translate(0 38.1875)"/><use xlink:href="#w" transform="matrix(1,0,0,1,1065,1025) translate(10.95 38.1875)"/><use xlink:href="#x" transform="matrix(1,0,0,1,1065,1025) translate(50.900000000000006 38.1875)"/><use xlink:href="#l" transform="matrix(1,0,0,1,1065,1025) translate(0 59.7875)"/><use xlink:href="#y" transform="matrix(1,0,0,1,1065,1025) translate(10.95 59.7875)"/><use xlink:href="#z" transform="matrix(1,0,0,1,1065,1025) translate(38.900000000000006 59.7875)"/></g><path d="M1060 700h140v40h-140z" stroke="#000" stroke-width="2" fill="#ffeca9"/><g><use xlink:href="#u" transform="matrix(1,0,0,1,1065,705) translate(19.599999999999994 18.15)"/><use xlink:href="#r" transform="matrix(1,0,0,1,1065,705) translate(90.4 18.15)"/></g><path d="M1060 740h140v80h-140z" stroke="#000" stroke-width="2" fill="#ffeca9"/><g><use xlink:href="#i" transform="matrix(1,0,0,1,1065,745) translate(0 16.5875)"/><use xlink:href="#j" transform="matrix(1,0,0,1,1065,745) translate(10.95 16.5875)"/><use xlink:href="#v" transform="matrix(1,0,0,1,1065,745) translate(62.85000000000001 16.5875)"/><use xlink:href="#l" transform="matrix(1,0,0,1,1065,745) translate(0 38.1875)"/><use xlink:href="#w" transform="matrix(1,0,0,1,1065,745) translate(10.95 38.1875)"/><use xlink:href="#x" transform="matrix(1,0,0,1,1065,745) translate(50.900000000000006 38.1875)"/><use xlink:href="#l" transform="matrix(1,0,0,1,1065,745) translate(0 59.7875)"/><use xlink:href="#y" transform="matrix(1,0,0,1,1065,745) translate(10.95 59.7875)"/><use xlink:href="#z" transform="matrix(1,0,0,1,1065,745) translate(38.900000000000006 59.7875)"/></g><path d="M988.4 675h33.8v78.08h9.83" stroke="#c92d39" stroke-width="6" fill="none"/><path d="M988.47 678h-3.07v-6h3.07z" fill="#c92d39"/><path d="M1049.3 753.08l-14.27 4.64v-9.27z" stroke="#c92d39" stroke-width="6" fill="#c92d39"/><path d="M988.4 830h33.8v-50h9.83" stroke="#c92d39" stroke-width="6" fill="none"/><path d="M988.47 833h-3.07v-6h3.07z" fill="#c92d39"/><path d="M1049.3 780l-14.27 4.64v-9.28z" stroke="#c92d39" stroke-width="6" fill="#c92d39"/><path d="M988.4 1125h33.8v-65h9.83" stroke="#c92d39" stroke-width="6" fill="none"/><path d="M988.47 1128h-3.07v-6h3.07z" fill="#c92d39"/><path d="M1049.3 1060l-14.27 4.64v-9.28z" stroke="#c92d39" stroke-width="6" fill="#c92d39"/><path d="M988.4 975h33.8v53.6h9.83" stroke="#c92d39" stroke-width="6" fill="none"/><path d="M988.47 978h-3.07v-6h3.07z" fill="#c92d39"/><path d="M1049.3 1028.6l-14.27 4.64v-9.27z" stroke="#c92d39" stroke-width="6" fill="#c92d39"/><path d="M1280 820h140v40h-140z" stroke="#000" stroke-width="2" fill="#ffeca9"/><g><use xlink:href="#A" transform="matrix(1,0,0,1,1285,825) translate(33.55 18.15)"/></g><path d="M1280 860h140v80h-140z" stroke="#000" stroke-width="2" fill="#ffeca9"/><g><use xlink:href="#i" transform="matrix(1,0,0,1,1285,865) translate(0 16.5875)"/><use xlink:href="#B" transform="matrix(1,0,0,1,1285,865) translate(10.95 16.5875)"/><use xlink:href="#C" transform="matrix(1,0,0,1,1285,865) translate(53.85000000000001 16.5875)"/><use xlink:href="#l" transform="matrix(1,0,0,1,1285,865) translate(0 38.1875)"/><use xlink:href="#D" transform="matrix(1,0,0,1,1285,865) translate(10.95 38.1875)"/><use xlink:href="#E" transform="matrix(1,0,0,1,1285,865) translate(57.900000000000006 38.1875)"/><use xlink:href="#l" transform="matrix(1,0,0,1,1285,865) translate(0 59.7875)"/><use xlink:href="#F" transform="matrix(1,0,0,1,1285,865) translate(10.95 59.7875)"/><use xlink:href="#G" transform="matrix(1,0,0,1,1285,865) translate(45.849999999999994 59.7875)"/></g><path d="M988.4 675H1230v165h22.03" stroke="#c92d39" stroke-width="6" fill="none"/><path d="M988.47 678h-3.07v-6h3.07z" fill="#c92d39"/><path d="M1269.3 840l-14.27 4.64v-9.28z" stroke="#c92d39" stroke-width="6" fill="#c92d39"/><path d="M988.4 830h31.6v39.73h232.03" stroke="#c92d39" stroke-width="6" fill="none"/><path d="M988.47 833h-3.07v-6h3.07z" fill="#c92d39"/><path d="M1269.3 869.73l-14.27 4.63v-9.27z" stroke="#c92d39" stroke-width="6" fill="#c92d39"/><path d="M988.4 975h41.6v-75h222.03" stroke="#c92d39" stroke-width="6" fill="none"/><path d="M988.47 978h-3.07v-6h3.07z" fill="#c92d39"/><path d="M1269.3 900l-14.27 4.64v-9.28z" stroke="#c92d39" stroke-width="6" fill="#c92d39"/><path d="M988.4 1125H1230V924.2h22.03" stroke="#c92d39" stroke-width="6" fill="none"/><path d="M988.47 1128h-3.07v-6h3.07z" fill="#c92d39"/><path d="M1269.3 924.2l-14.27 4.63v-9.27z" stroke="#c92d39" stroke-width="6" fill="#c92d39"/><defs><path d="M155-56V0h-30v-56H8v-25l114-167h33v167h35v25h-35zm-30-156c-27 46-58 90-88 131h88v-131" id="H"/><path d="M33 0v-38h34V0H33" id="I"/><g id="b"><use transform="matrix(0.05,0,0,0.05,0,0)" xlink:href="#H"/><use transform="matrix(0.05,0,0,0.05,10,0)" xlink:href="#I"/></g><path d="M101-234c-31-9-42 10-38 44h38v23H63V0H32v-167H5v-23h27c-7-52 17-82 69-68v24" id="J"/><path d="M24 0v-261h32V0H24" id="K"/><path d="M100-194c62-1 85 37 85 99 1 63-27 99-86 99S16-35 15-95c0-66 28-99 85-99zM99-20c44 1 53-31 53-75 0-43-8-75-51-75s-53 32-53 75 10 74 51 75" id="L"/><path d="M114-163C36-179 61-72 57 0H25l-1-190h30c1 12-1 29 2 39 6-27 23-49 58-41v29" id="M"/><g id="c"><use transform="matrix(0.05,0,0,0.05,0,0)" xlink:href="#J"/><use transform="matrix(0.05,0,0,0.05,5,0)" xlink:href="#K"/><use transform="matrix(0.05,0,0,0.05,8.95,0)" xlink:href="#L"/><use transform="matrix(0.05,0,0,0.05,18.95,0)" xlink:href="#L"/><use transform="matrix(0.05,0,0,0.05,28.950000000000003,0)" xlink:href="#M"/></g><path d="M126-127c33 6 58 20 58 59 0 88-139 92-164 29-3-8-5-16-6-25l32-3c6 27 21 44 54 44 32 0 52-15 52-46 0-38-36-46-79-43v-28c39 1 72-4 72-42 0-27-17-43-46-43-28 0-47 15-49 41l-32-3c6-42 35-63 81-64 48-1 79 21 79 65 0 36-21 52-52 59" id="N"/><g id="d"><use transform="matrix(0.05,0,0,0.05,0,0)" xlink:href="#N"/><use transform="matrix(0.05,0,0,0.05,10,0)" xlink:href="#I"/></g><path d="M101-251c82-7 93 87 43 132L82-64C71-53 59-42 53-27h129V0H18c2-99 128-94 128-182 0-28-16-43-45-43s-46 15-49 41l-32-3c6-41 34-60 81-64" id="O"/><g id="e"><use transform="matrix(0.05,0,0,0.05,0,0)" xlink:href="#O"/><use transform="matrix(0.05,0,0,0.05,10,0)" xlink:href="#I"/></g><path d="M27 0v-27h64v-190l-56 39v-29l58-41h29v221h61V0H27" id="P"/><g id="f"><use transform="matrix(0.05,0,0,0.05,0,0)" xlink:href="#P"/><use transform="matrix(0.05,0,0,0.05,10,0)" xlink:href="#I"/></g><path d="M182-130c37 4 62 22 62 59C244 23 116-4 24 0v-248c84 5 203-23 205 63 0 31-19 50-47 55zM76-148c40-3 101 13 101-30 0-44-60-28-101-31v61zm0 110c48-3 116 14 116-37 0-48-69-32-116-35v72" id="Q"/><path d="M133-34C117-15 103 5 69 4 32 3 11-16 11-54c-1-60 55-63 116-61 1-26-3-47-28-47-18 1-26 9-28 27l-52-2c7-38 36-58 82-57s74 22 75 68l1 82c-1 14 12 18 25 15v27c-30 8-71 5-69-32zm-48 3c29 0 43-24 42-57-32 0-66-3-65 30 0 17 8 27 23 27" id="R"/><path d="M115-3C79 11 28 4 28-45v-112H4v-33h27l15-45h31v45h36v33H77v99c-1 23 16 31 38 25v30" id="S"/><path d="M114-157C55-157 80-60 75 0H25v-261h50l-1 109c12-26 28-41 61-42 86-1 58 113 63 194h-50c-7-57 23-157-34-157" id="T"/><path d="M135-150c-39-12-60 13-60 57V0H25l-1-190h47c2 13-1 29 3 40 6-28 27-53 61-41v41" id="U"/><path d="M110-194c64 0 96 36 96 99 0 64-35 99-97 99-61 0-95-36-95-99 0-62 34-99 96-99zm-1 164c35 0 45-28 45-65 0-40-10-65-43-65-34 0-45 26-45 65 0 36 10 65 43 65" id="V"/><path d="M220-157c-53 9-28 100-34 157h-49v-107c1-27-5-49-29-50C55-147 81-57 75 0H25l-1-190h47c2 12-1 28 3 38 10-53 101-56 108 0 13-22 24-43 59-42 82 1 51 116 57 194h-49v-107c-1-25-5-48-29-50" id="W"/><g id="g"><use transform="matrix(0.05,0,0,0.05,0,0)" xlink:href="#Q"/><use transform="matrix(0.05,0,0,0.05,12.950000000000001,0)" xlink:href="#R"/><use transform="matrix(0.05,0,0,0.05,22.950000000000003,0)" xlink:href="#S"/><use transform="matrix(0.05,0,0,0.05,28.900000000000002,0)" xlink:href="#T"/><use transform="matrix(0.05,0,0,0.05,39.85,0)" xlink:href="#U"/><use transform="matrix(0.05,0,0,0.05,46.85,0)" xlink:href="#V"/><use transform="matrix(0.05,0,0,0.05,57.800000000000004,0)" xlink:href="#V"/><use transform="matrix(0.05,0,0,0.05,68.75,0)" xlink:href="#W"/></g><path d="M160-152l-12 59h37v26h-43L128 0h-28l14-67H60L46 0H20l13-67H6v-26h33l13-59H15v-26h42l15-67h27l-15 67h54l15-67h27l-14 67h28v26h-34zm-81 0L66-93h55l12-59H79" id="X"/><path d="M23 0v-37h61v-169l-59 37v-38l62-41h46v211h57V0H23" id="Y"/><g id="h"><use transform="matrix(0.05,0,0,0.05,0,0)" xlink:href="#X"/><use transform="matrix(0.05,0,0,0.05,10,0)" xlink:href="#Y"/></g><path d="M16-82v-28h88v28H16" id="Z"/><use transform="matrix(0.05,0,0,0.05,0,0)" xlink:href="#Z" id="i"/><path d="M212-179c-10-28-35-45-73-45-59 0-87 40-87 99 0 60 29 101 89 101 43 0 62-24 78-52l27 14C228-24 195 4 139 4 59 4 22-46 18-125c-6-104 99-153 187-111 19 9 31 26 39 46" id="aa"/><path d="M100-194c63 0 86 42 84 106H49c0 40 14 67 53 68 26 1 43-12 49-29l28 8c-11 28-37 45-77 45C44 4 14-33 15-96c1-61 26-98 85-98zm52 81c6-60-76-77-97-28-3 7-6 17-6 28h103" id="ab"/><path d="M141-36C126-15 110 5 73 4 37 3 15-17 15-53c-1-64 63-63 125-63 3-35-9-54-41-54-24 1-41 7-42 31l-33-3c5-37 33-52 76-52 45 0 72 20 72 64v82c-1 20 7 32 28 27v20c-31 9-61-2-59-35zM48-53c0 20 12 33 32 33 41-3 63-29 60-74-43 2-92-5-92 41" id="ac"/><path d="M117-194c89-4 53 116 60 194h-32v-121c0-31-8-49-39-48C34-167 62-67 57 0H25l-1-190h30c1 10-1 24 2 32 11-22 29-35 61-36" id="ad"/><g id="j"><use transform="matrix(0.05,0,0,0.05,0,0)" xlink:href="#aa"/><use transform="matrix(0.05,0,0,0.05,12.950000000000001,0)" xlink:href="#K"/><use transform="matrix(0.05,0,0,0.05,16.900000000000002,0)" xlink:href="#ab"/><use transform="matrix(0.05,0,0,0.05,26.900000000000002,0)" xlink:href="#ac"/><use transform="matrix(0.05,0,0,0.05,36.900000000000006,0)" xlink:href="#ad"/></g><path d="M135-143c-3-34-86-38-87 0 15 53 115 12 119 90S17 21 10-45l28-5c4 36 97 45 98 0-10-56-113-15-118-90-4-57 82-63 122-42 12 7 21 19 24 35" id="ae"/><path d="M106-169C34-169 62-67 57 0H25v-261h32l-1 103c12-21 28-36 61-36 89 0 53 116 60 194h-32v-121c2-32-8-49-39-48" id="af"/><path d="M206 0h-36l-40-164L89 0H53L-1-190h32L70-26l43-164h34l41 164 42-164h31" id="ag"/><g id="k"><use transform="matrix(0.05,0,0,0.05,0,0)" xlink:href="#ae"/><use transform="matrix(0.05,0,0,0.05,9,0)" xlink:href="#af"/><use transform="matrix(0.05,0,0,0.05,19,0)" xlink:href="#L"/><use transform="matrix(0.05,0,0,0.05,29,0)" xlink:href="#ag"/><use transform="matrix(0.05,0,0,0.05,41.95,0)" xlink:href="#ab"/><use transform="matrix(0.05,0,0,0.05,51.95,0)" xlink:href="#M"/></g><use transform="matrix(0.05,0,0,0.05,0,0)" xlink:href="#Z" id="l"/><path d="M233-177c-1 41-23 64-60 70L243 0h-38l-65-103H63V0H30v-248c88 3 205-21 203 71zM63-129c60-2 137 13 137-47 0-61-80-42-137-45v92" id="ah"/><path d="M115-194c55 1 70 41 70 98S169 2 115 4C84 4 66-9 55-30l1 105H24l-1-265h31l2 30c10-21 28-34 59-34zm-8 174c40 0 45-34 45-75s-6-73-45-74c-42 0-51 32-51 76 0 43 10 73 51 73" id="ai"/><path d="M96-169c-40 0-48 33-48 73s9 75 48 75c24 0 41-14 43-38l32 2c-6 37-31 61-74 61-59 0-76-41-82-99-10-93 101-131 147-64 4 7 5 14 7 22l-32 3c-4-21-16-35-41-35" id="aj"/><g id="m"><use transform="matrix(0.05,0,0,0.05,0,0)" xlink:href="#ah"/><use transform="matrix(0.05,0,0,0.05,12.950000000000001,0)" xlink:href="#ab"/><use transform="matrix(0.05,0,0,0.05,22.950000000000003,0)" xlink:href="#ai"/><use transform="matrix(0.05,0,0,0.05,32.95,0)" xlink:href="#K"/><use transform="matrix(0.05,0,0,0.05,36.900000000000006,0)" xlink:href="#ac"/><use transform="matrix(0.05,0,0,0.05,46.900000000000006,0)" xlink:href="#aj"/><use transform="matrix(0.05,0,0,0.05,55.900000000000006,0)" xlink:href="#ab"/></g><path d="M59-47c-2 24 18 29 38 22v24C64 9 27 4 27-40v-127H5v-23h24l9-43h21v43h35v23H59v120" id="ak"/><g id="n"><use transform="matrix(0.05,0,0,0.05,0,0)" xlink:href="#ak"/><use transform="matrix(0.05,0,0,0.05,5,0)" xlink:href="#L"/><use transform="matrix(0.05,0,0,0.05,15,0)" xlink:href="#ag"/><use transform="matrix(0.05,0,0,0.05,27.950000000000003,0)" xlink:href="#ab"/><use transform="matrix(0.05,0,0,0.05,37.95,0)" xlink:href="#K"/></g><path d="M63-220v92h138v28H63V0H30v-248h175v28H63" id="al"/><path d="M24-231v-30h32v30H24zM24 0v-190h32V0H24" id="am"/><g id="o"><use transform="matrix(0.05,0,0,0.05,0,0)" xlink:href="#al"/><use transform="matrix(0.05,0,0,0.05,10.950000000000001,0)" xlink:href="#am"/><use transform="matrix(0.05,0,0,0.05,14.9,0)" xlink:href="#K"/><use transform="matrix(0.05,0,0,0.05,18.85,0)" xlink:href="#K"/></g><path d="M84 4C-5 8 30-112 23-190h32v120c0 31 7 50 39 49 72-2 45-101 50-169h31l1 190h-30c-1-10 1-25-2-33-11 22-28 36-60 37" id="an"/><g id="p"><use transform="matrix(0.05,0,0,0.05,0,0)" xlink:href="#an"/><use transform="matrix(0.05,0,0,0.05,10,0)" xlink:href="#ai"/></g><g id="q"><use transform="matrix(0.05,0,0,0.05,0,0)" xlink:href="#ae"/><use transform="matrix(0.05,0,0,0.05,9,0)" xlink:href="#L"/><use transform="matrix(0.05,0,0,0.05,19,0)" xlink:href="#ac"/><use transform="matrix(0.05,0,0,0.05,29,0)" xlink:href="#ai"/></g><path d="M182-182c0 78-84 86-111 141h115V0H12c-6-101 99-100 120-180 1-22-12-31-33-32-23 0-32 14-35 34l-49-3c5-45 32-70 84-70 51 0 83 22 83 69" id="ao"/><g id="r"><use transform="matrix(0.05,0,0,0.05,0,0)" xlink:href="#X"/><use transform="matrix(0.05,0,0,0.05,10,0)" xlink:href="#ao"/></g><path d="M128-127c34 4 56 21 59 58 7 91-148 94-172 28-4-9-6-17-7-26l51-5c1 24 16 35 40 36 23 0 39-12 38-36-1-31-31-36-65-34v-40c32 2 59-3 59-33 0-20-13-33-34-33s-33 13-35 32l-50-3c6-44 37-68 86-68 50 0 83 20 83 66 0 35-22 52-53 58" id="ap"/><g id="s"><use transform="matrix(0.05,0,0,0.05,0,0)" xlink:href="#X"/><use transform="matrix(0.05,0,0,0.05,10,0)" xlink:href="#ap"/></g><path d="M165-50V0h-47v-50H5v-38l105-160h55v161h33v37h-33zm-47-37l2-116L46-87h72" id="aq"/><g id="t"><use transform="matrix(0.05,0,0,0.05,0,0)" xlink:href="#X"/><use transform="matrix(0.05,0,0,0.05,10,0)" xlink:href="#aq"/></g><path d="M195 0l-88-114-31 24V0H24v-248h52v113l112-113h60L142-143 257 0h-62" id="ar"/><path d="M25-224v-37h50v37H25zM25 0v-190h50V0H25" id="as"/><path d="M190-63c-7 42-38 67-86 67-59 0-84-38-90-98-12-110 154-137 174-36l-49 2c-2-19-15-32-35-32-30 0-35 28-38 64-6 74 65 87 74 30" id="at"/><path d="M185-48c-13 30-37 53-82 52C43 2 14-33 14-96s30-98 90-98c62 0 83 45 84 108H66c0 31 8 55 39 56 18 0 30-7 34-22zm-45-69c5-46-57-63-70-21-2 6-4 13-4 21h74" id="au"/><path d="M135-194c87-1 58 113 63 194h-50c-7-57 23-157-34-157-59 0-34 97-39 157H25l-1-190h47c2 12-1 28 3 38 12-26 28-41 61-42" id="av"/><g id="u"><use transform="matrix(0.05,0,0,0.05,0,0)" xlink:href="#ar"/><use transform="matrix(0.05,0,0,0.05,12.950000000000001,0)" xlink:href="#as"/><use transform="matrix(0.05,0,0,0.05,17.950000000000003,0)" xlink:href="#S"/><use transform="matrix(0.05,0,0,0.05,23.900000000000002,0)" xlink:href="#at"/><use transform="matrix(0.05,0,0,0.05,33.900000000000006,0)" xlink:href="#T"/><use transform="matrix(0.05,0,0,0.05,44.85000000000001,0)" xlink:href="#au"/><use transform="matrix(0.05,0,0,0.05,54.85,0)" xlink:href="#av"/></g><path d="M108 0H70L1-190h34L89-25l56-165h34" id="aw"/><g id="v"><use transform="matrix(0.05,0,0,0.05,0,0)" xlink:href="#ae"/><use transform="matrix(0.05,0,0,0.05,9,0)" xlink:href="#ak"/><use transform="matrix(0.05,0,0,0.05,14,0)" xlink:href="#L"/><use transform="matrix(0.05,0,0,0.05,24,0)" xlink:href="#aw"/><use transform="matrix(0.05,0,0,0.05,33,0)" xlink:href="#ab"/></g><path d="M240 0l2-218c-23 76-54 145-80 218h-23L58-218 59 0H30v-248h44l77 211c21-75 51-140 76-211h43V0h-30" id="ax"/><g id="w"><use transform="matrix(0.05,0,0,0.05,0,0)" xlink:href="#ax"/><use transform="matrix(0.05,0,0,0.05,14.950000000000001,0)" xlink:href="#L"/><use transform="matrix(0.05,0,0,0.05,24.950000000000003,0)" xlink:href="#ai"/></g><g id="x"><use transform="matrix(0.05,0,0,0.05,0,0)" xlink:href="#J"/><use transform="matrix(0.05,0,0,0.05,5,0)" xlink:href="#K"/><use transform="matrix(0.05,0,0,0.05,8.95,0)" xlink:href="#L"/><use transform="matrix(0.05,0,0,0.05,18.95,0)" xlink:href="#L"/><use transform="matrix(0.05,0,0,0.05,28.950000000000003,0)" xlink:href="#M"/></g><path d="M30-248c118-7 216 8 213 122C240-48 200 0 122 0H30v-248zM63-27c89 8 146-16 146-99s-60-101-146-95v194" id="ay"/><g id="y"><use transform="matrix(0.05,0,0,0.05,0,0)" xlink:href="#ay"/><use transform="matrix(0.05,0,0,0.05,12.950000000000001,0)" xlink:href="#L"/></g><path d="M85-194c31 0 48 13 60 33l-1-100h32l1 261h-30c-2-10 0-23-3-31C134-8 116 4 85 4 32 4 16-35 15-94c0-66 23-100 70-100zm9 24c-40 0-46 34-46 75 0 40 6 74 45 74 42 0 51-32 51-76 0-42-9-74-50-73" id="az"/><g id="z"><use transform="matrix(0.05,0,0,0.05,0,0)" xlink:href="#az"/><use transform="matrix(0.05,0,0,0.05,10,0)" xlink:href="#am"/><use transform="matrix(0.05,0,0,0.05,13.949999999999998,0)" xlink:href="#ae"/><use transform="matrix(0.05,0,0,0.05,22.95,0)" xlink:href="#af"/><use transform="matrix(0.05,0,0,0.05,32.95,0)" xlink:href="#ab"/><use transform="matrix(0.05,0,0,0.05,42.95,0)" xlink:href="#ae"/></g><path d="M67-125c0 54 23 88 75 88 28 0 53-7 68-21v-34h-60v-39h108v91C232-14 192 4 140 4 58 4 20-42 15-125 8-236 126-280 215-234c19 10 29 26 37 47l-47 15c-11-23-29-39-63-39-53 1-75 33-75 86" id="aA"/><path d="M88-194c31-1 46 15 58 34l-1-101h50l1 261h-48c-2-10 0-23-3-31C134-8 116 4 84 4 32 4 16-41 15-95c0-56 19-97 73-99zm17 164c33 0 40-30 41-66 1-37-9-64-41-64s-38 30-39 65c0 43 13 65 39 65" id="aB"/><g id="A"><use transform="matrix(0.05,0,0,0.05,0,0)" xlink:href="#aA"/><use transform="matrix(0.05,0,0,0.05,14,0)" xlink:href="#R"/><use transform="matrix(0.05,0,0,0.05,24,0)" xlink:href="#U"/><use transform="matrix(0.05,0,0,0.05,31,0)" xlink:href="#aB"/><use transform="matrix(0.05,0,0,0.05,41.95,0)" xlink:href="#au"/><use transform="matrix(0.05,0,0,0.05,51.95,0)" xlink:href="#av"/></g><g id="B"><use transform="matrix(0.05,0,0,0.05,0,0)" xlink:href="#ax"/><use transform="matrix(0.05,0,0,0.05,14.950000000000001,0)" xlink:href="#L"/><use transform="matrix(0.05,0,0,0.05,24.950000000000003,0)" xlink:href="#ag"/></g><path d="M177-190C167-65 218 103 67 71c-23-6-38-20-44-43l32-5c15 47 100 32 89-28v-30C133-14 115 1 83 1 29 1 15-40 15-95c0-56 16-97 71-98 29-1 48 16 59 35 1-10 0-23 2-32h30zM94-22c36 0 50-32 50-73 0-42-14-75-50-75-39 0-46 34-46 75s6 73 46 73" id="aC"/><g id="C"><use transform="matrix(0.05,0,0,0.05,0,0)" xlink:href="#aC"/><use transform="matrix(0.05,0,0,0.05,10,0)" xlink:href="#M"/><use transform="matrix(0.05,0,0,0.05,15.949999999999998,0)" xlink:href="#ac"/><use transform="matrix(0.05,0,0,0.05,25.950000000000003,0)" xlink:href="#ae"/><use transform="matrix(0.05,0,0,0.05,34.95,0)" xlink:href="#ae"/></g><path d="M143 0L79-87 56-68V0H24v-261h32v163l83-92h37l-77 82L181 0h-38" id="aD"/><g id="D"><use transform="matrix(0.05,0,0,0.05,0,0)" xlink:href="#ah"/><use transform="matrix(0.05,0,0,0.05,12.950000000000001,0)" xlink:href="#ac"/><use transform="matrix(0.05,0,0,0.05,22.950000000000003,0)" xlink:href="#aD"/><use transform="matrix(0.05,0,0,0.05,31.950000000000003,0)" xlink:href="#ab"/></g><g id="E"><use transform="matrix(0.05,0,0,0.05,0,0)" xlink:href="#K"/><use transform="matrix(0.05,0,0,0.05,3.95,0)" xlink:href="#ab"/><use transform="matrix(0.05,0,0,0.05,13.949999999999998,0)" xlink:href="#ac"/><use transform="matrix(0.05,0,0,0.05,23.95,0)" xlink:href="#aw"/><use transform="matrix(0.05,0,0,0.05,32.95,0)" xlink:href="#ab"/><use transform="matrix(0.05,0,0,0.05,42.95,0)" xlink:href="#ae"/></g><path d="M30-248c87 1 191-15 191 75 0 78-77 80-158 76V0H30v-248zm33 125c57 0 124 11 124-50 0-59-68-47-124-48v98" id="aE"/><g id="F"><use transform="matrix(0.05,0,0,0.05,0,0)" xlink:href="#aE"/><use transform="matrix(0.05,0,0,0.05,12,0)" xlink:href="#an"/><use transform="matrix(0.05,0,0,0.05,22,0)" xlink:href="#K"/><use transform="matrix(0.05,0,0,0.05,25.950000000000003,0)" xlink:href="#K"/></g><g id="G"><use transform="matrix(0.05,0,0,0.05,0,0)" xlink:href="#ag"/><use transform="matrix(0.05,0,0,0.05,12.950000000000001,0)" xlink:href="#ab"/><use transform="matrix(0.05,0,0,0.05,22.950000000000003,0)" xlink:href="#ab"/><use transform="matrix(0.05,0,0,0.05,32.95,0)" xlink:href="#az"/><use transform="matrix(0.05,0,0,0.05,42.95,0)" xlink:href="#ae"/></g></defs></g></svg>